<svg width="50" height="50" viewBox="0 0 50 50" fill="none" xmlns="http://www.w3.org/2000/svg">
<path d="M21.35 2.7V6.9H2.60001C1.90001 6.9 1.35001 7.45 1.35001 8.15V48.4C1.35001 49.1 1.90001 49.65 2.60001 49.65H47.45C48.15 49.65 48.7 49.1 48.7 48.4V1.7C48.7 0.999999 48.1 0.399999 47.4 0.449999L22.55 1.45C21.85 1.45 21.35 2 21.35 2.7ZM11.35 47.15H3.85001V9.4H21.2V16.7H12.6C11.9 16.7 11.35 17.25 11.35 17.95V47.15ZM24.05 47.15H20.9V44.15H24.05V47.15ZM31 47.15H26.55V43C26.55 42.3 26 41.75 25.3 41.75H19.65C18.95 41.75 18.4 42.3 18.4 43V47.2H13.85V19.2H31V47.15ZM46.15 47.15H33.5V17.95C33.5 17.25 32.95 16.7 32.25 16.7H23.85V3.9L46.15 3V47.15Z" fill="white"/>
<path d="M7.10001 14.1H8.60001C8.90001 14.1 9.10001 13.9 9.10001 13.6V12.1C9.10001 11.8 8.90001 11.6 8.60001 11.6H7.10001C6.80001 11.6 6.60001 11.8 6.60001 12.1V13.6C6.60001 13.9 6.85001 14.1 7.10001 14.1Z" fill="white"/>
<path d="M15.85 14.1H17.35C17.65 14.1 17.85 13.9 17.85 13.6V12.1C17.85 11.8 17.65 11.6 17.35 11.6H15.85C15.55 11.6 15.35 11.8 15.35 12.1V13.6C15.35 13.9 15.6 14.1 15.85 14.1Z" fill="white"/>
<path d="M29.1 6.20001H27.6C27.3 6.20001 27.1 6.40001 27.1 6.70001V8.20001C27.1 8.50001 27.3 8.70001 27.6 8.70001H29.1C29.4 8.70001 29.6 8.50001 29.6 8.20001V6.70001C29.6 6.45001 29.4 6.20001 29.1 6.20001Z" fill="white"/>
<path d="M36.75 6.20001H35.25C34.95 6.20001 34.75 6.40001 34.75 6.70001V8.20001C34.75 8.50001 34.95 8.70001 35.25 8.70001H36.75C37.05 8.70001 37.25 8.50001 37.25 8.20001V6.70001C37.25 6.45001 37.05 6.20001 36.75 6.20001Z" fill="white"/>
<path d="M43.35 6.20001H41.85C41.55 6.20001 41.35 6.40001 41.35 6.70001V8.20001C41.35 8.50001 41.55 8.70001 41.85 8.70001H43.35C43.65 8.70001 43.85 8.50001 43.85 8.20001V6.70001C43.85 6.45001 43.65 6.20001 43.35 6.20001Z" fill="white"/>
<path d="M29.1 13.2H27.6C27.3 13.2 27.1 13.4 27.1 13.7V15.2C27.1 15.5 27.3 15.7 27.6 15.7H29.1C29.4 15.7 29.6 15.5 29.6 15.2V13.7C29.6 13.45 29.4 13.2 29.1 13.2Z" fill="white"/>
<path d="M36.75 13.2H35.25C34.95 13.2 34.75 13.4 34.75 13.7V15.2C34.75 15.5 34.95 15.7 35.25 15.7H36.75C37.05 15.7 37.25 15.5 37.25 15.2V13.7C37.25 13.45 37.05 13.2 36.75 13.2Z" fill="white"/>
<path d="M43.35 13.2H41.85C41.55 13.2 41.35 13.4 41.35 13.7V15.2C41.35 15.5 41.55 15.7 41.85 15.7H43.35C43.65 15.7 43.85 15.5 43.85 15.2V13.7C43.85 13.45 43.65 13.2 43.35 13.2Z" fill="white"/>
<path d="M36.75 19.35H35.25C34.95 19.35 34.75 19.55 34.75 19.85V21.35C34.75 21.65 34.95 21.85 35.25 21.85H36.75C37.05 21.85 37.25 21.65 37.25 21.35V19.85C37.25 19.6 37.05 19.35 36.75 19.35Z" fill="white"/>
<path d="M43.35 19.35H41.85C41.55 19.35 41.35 19.55 41.35 19.85V21.35C41.35 21.65 41.55 21.85 41.85 21.85H43.35C43.65 21.85 43.85 21.65 43.85 21.35V19.85C43.85 19.6 43.65 19.35 43.35 19.35Z" fill="white"/>
<path d="M36.75 24.85H35.25C34.95 24.85 34.75 25.05 34.75 25.35V26.85C34.75 27.15 34.95 27.35 35.25 27.35H36.75C37.05 27.35 37.25 27.15 37.25 26.85V25.35C37.25 25.1 37.05 24.85 36.75 24.85Z" fill="white"/>
<path d="M43.35 24.85H41.85C41.55 24.85 41.35 25.05 41.35 25.35V26.85C41.35 27.15 41.55 27.35 41.85 27.35H43.35C43.65 27.35 43.85 27.15 43.85 26.85V25.35C43.85 25.1 43.65 24.85 43.35 24.85Z" fill="white"/>
<path d="M36.75 30.85H35.25C34.95 30.85 34.75 31.05 34.75 31.35V32.85C34.75 33.15 34.95 33.35 35.25 33.35H36.75C37.05 33.35 37.25 33.15 37.25 32.85V31.35C37.25 31.1 37.05 30.85 36.75 30.85Z" fill="white"/>
<path d="M43.35 30.85H41.85C41.55 30.85 41.35 31.05 41.35 31.35V32.85C41.35 33.15 41.55 33.35 41.85 33.35H43.35C43.65 33.35 43.85 33.15 43.85 32.85V31.35C43.85 31.1 43.65 30.85 43.35 30.85Z" fill="white"/>
<path d="M36.75 36.85H35.25C34.95 36.85 34.75 37.05 34.75 37.35V38.85C34.75 39.15 34.95 39.35 35.25 39.35H36.75C37.05 39.35 37.25 39.15 37.25 38.85V37.35C37.25 37.1 37.05 36.85 36.75 36.85Z" fill="white"/>
<path d="M43.35 36.85H41.85C41.55 36.85 41.35 37.05 41.35 37.35V38.85C41.35 39.15 41.55 39.35 41.85 39.35H43.35C43.65 39.35 43.85 39.15 43.85 38.85V37.35C43.85 37.1 43.65 36.85 43.35 36.85Z" fill="white"/>
<path d="M36.75 42.85H35.25C34.95 42.85 34.75 43.05 34.75 43.35V44.85C34.75 45.15 34.95 45.35 35.25 45.35H36.75C37.05 45.35 37.25 45.15 37.25 44.85V43.35C37.25 43.1 37.05 42.85 36.75 42.85Z" fill="white"/>
<path d="M43.35 42.85H41.85C41.55 42.85 41.35 43.05 41.35 43.35V44.85C41.35 45.15 41.55 45.35 41.85 45.35H43.35C43.65 45.35 43.85 45.15 43.85 44.85V43.35C43.85 43.1 43.65 42.85 43.35 42.85Z" fill="white"/>
<path d="M7.10001 20H8.60001C8.90001 20 9.10001 19.8 9.10001 19.5V18C9.10001 17.7 8.90001 17.5 8.60001 17.5H7.10001C6.80001 17.5 6.60001 17.7 6.60001 18V19.5C6.60001 19.8 6.85001 20 7.10001 20Z" fill="white"/>
<path d="M7.10001 25.9H8.60001C8.90001 25.9 9.10001 25.7 9.10001 25.4V23.9C9.10001 23.6 8.90001 23.4 8.60001 23.4H7.10001C6.80001 23.4 6.60001 23.6 6.60001 23.9V25.4C6.60001 25.7 6.85001 25.9 7.10001 25.9Z" fill="white"/>
<path d="M7.10001 31.8H8.60001C8.90001 31.8 9.10001 31.6 9.10001 31.3V29.8C9.10001 29.5 8.90001 29.3 8.60001 29.3H7.10001C6.80001 29.3 6.60001 29.5 6.60001 29.8V31.3C6.60001 31.6 6.85001 31.8 7.10001 31.8Z" fill="white"/>
<path d="M7.10001 37.7H8.60001C8.90001 37.7 9.10001 37.5 9.10001 37.2V35.7C9.10001 35.4 8.90001 35.2 8.60001 35.2H7.10001C6.80001 35.2 6.60001 35.4 6.60001 35.7V37.2C6.60001 37.5 6.85001 37.7 7.10001 37.7Z" fill="white"/>
<path d="M7.10001 43.6H8.60001C8.90001 43.6 9.10001 43.4 9.10001 43.1V41.6C9.10001 41.3 8.90001 41.1 8.60001 41.1H7.10001C6.80001 41.1 6.60001 41.3 6.60001 41.6V43.1C6.60001 43.4 6.85001 43.6 7.10001 43.6Z" fill="white"/>
<path d="M18.9 21.7H17.4C17.1 21.7 16.9 21.9 16.9 22.2V23.7C16.9 24 17.1 24.2 17.4 24.2H18.9C19.2 24.2 19.4 24 19.4 23.7V22.2C19.4 21.95 19.2 21.7 18.9 21.7Z" fill="white"/>
<path d="M27.55 21.7H26.05C25.75 21.7 25.55 21.9 25.55 22.2V23.7C25.55 24 25.75 24.2 26.05 24.2H27.55C27.85 24.2 28.05 24 28.05 23.7V22.2C28.05 21.95 27.8 21.7 27.55 21.7Z" fill="white"/>
<path d="M18.9 28.7H17.4C17.1 28.7 16.9 28.9 16.9 29.2V30.7C16.9 31 17.1 31.2 17.4 31.2H18.9C19.2 31.2 19.4 31 19.4 30.7V29.2C19.4 28.95 19.2 28.7 18.9 28.7Z" fill="white"/>
<path d="M27.55 28.7H26.05C25.75 28.7 25.55 28.9 25.55 29.2V30.7C25.55 31 25.75 31.2 26.05 31.2H27.55C27.85 31.2 28.05 31 28.05 30.7V29.2C28.05 28.95 27.8 28.7 27.55 28.7Z" fill="white"/>
<path d="M18.9 35.7H17.4C17.1 35.7 16.9 35.9 16.9 36.2V37.7C16.9 38 17.1 38.2 17.4 38.2H18.9C19.2 38.2 19.4 38 19.4 37.7V36.2C19.4 35.95 19.2 35.7 18.9 35.7Z" fill="white"/>
<path d="M27.55 35.7H26.05C25.75 35.7 25.55 35.9 25.55 36.2V37.7C25.55 38 25.75 38.2 26.05 38.2H27.55C27.85 38.2 28.05 38 28.05 37.7V36.2C28.05 35.95 27.8 35.7 27.55 35.7Z" fill="white"/>
</svg>
