<svg width="50" height="48" viewBox="0 0 50 48" fill="none" xmlns="http://www.w3.org/2000/svg">
<path d="M41.7579 23.5305C40.9458 23.5305 40.3169 24.1565 40.3169 24.9725V44.6708H30.0983V36.6272C30.0983 35.8726 29.4694 35.2129 28.7092 35.2129H21.3207C20.5079 35.2129 19.8534 35.8725 19.8534 36.6272V44.6708H9.6605V25.6265C9.6605 24.8662 9.03223 24.2347 8.21948 24.2347C7.45984 24.2347 6.83099 24.8662 6.83099 25.6265V46.1129C6.83099 46.8731 7.45984 47.5048 8.21948 47.5048H21.3207C22.0803 47.5048 22.7092 46.8731 22.7092 46.1129V38.0693H27.2681V46.1129C27.2681 46.8731 27.8969 47.5048 28.7092 47.5048H41.7579C42.5176 47.5048 43.1464 46.8731 43.1464 46.1129V24.9726C43.1464 24.1566 42.5176 23.5305 41.7579 23.5305Z" fill="white"/>
<path d="M49.592 24.654L38.2207 13.2341V5.44767C38.2207 4.63713 37.5655 4.01115 36.7534 4.01115C35.9931 4.01115 35.3644 4.63721 35.3644 5.44767V10.3778L25.9843 0.942342C25.6969 0.651654 25.3554 0.495117 25.015 0.495117C24.622 0.495117 24.2811 0.65721 23.9932 0.942342L0.43799 24.4974C-0.127127 25.062 -0.164546 25.9675 0.43799 26.4874C0.961767 27.0911 1.86398 27.0519 2.42909 26.4874L25.015 3.95518L47.5484 26.6998C47.7831 26.9346 48.1247 27.0688 48.5702 27.0688C48.9631 27.0688 49.3035 26.9346 49.592 26.6998C50.1163 26.1744 50.1554 25.2242 49.592 24.654Z" fill="white"/>
</svg>
