<svg width="50" height="50" viewBox="0 0 50 50" fill="none" xmlns="http://www.w3.org/2000/svg">
<path d="M4.16669 12.9688V40.0521" stroke="white" stroke-width="2" stroke-linecap="round" stroke-linejoin="round"/>
<path d="M45.8333 12.9688V40.0521" stroke="white" stroke-width="2" stroke-linecap="round" stroke-linejoin="round"/>
<path d="M11.4584 33.8021H25V48.3854H11.4584C11.1821 48.3854 10.9171 48.2756 10.7218 48.0803C10.5264 47.8849 10.4167 47.62 10.4167 47.3437V34.8437C10.4167 34.5675 10.5264 34.3025 10.7218 34.1072C10.9171 33.9118 11.1821 33.8021 11.4584 33.8021V33.8021Z" stroke="white" stroke-width="2" stroke-linecap="round" stroke-linejoin="round"/>
<path d="M25 33.8021H38.5417C38.8179 33.8021 39.0829 33.9118 39.2782 34.1072C39.4736 34.3025 39.5833 34.5675 39.5833 34.8437V47.3437C39.5833 47.62 39.4736 47.8849 39.2782 48.0803C39.0829 48.2756 38.8179 48.3854 38.5417 48.3854H25V33.8021Z" stroke="white" stroke-width="2" stroke-linecap="round" stroke-linejoin="round"/>
<path d="M17.7084 19.2188H30.2084C30.4846 19.2188 30.7496 19.3285 30.9449 19.5238C31.1403 19.7192 31.25 19.9841 31.25 20.2604V33.8021H16.6667V20.2604C16.6667 19.9841 16.7764 19.7192 16.9718 19.5238C17.1671 19.3285 17.4321 19.2188 17.7084 19.2188V19.2188Z" stroke="white" stroke-width="2" stroke-linecap="round" stroke-linejoin="round"/>
<path d="M20.8333 19.2188H27.0833V24.4271C27.0833 24.7034 26.9736 24.9683 26.7782 25.1637C26.5829 25.359 26.3179 25.4687 26.0416 25.4687H21.875C21.5987 25.4687 21.3338 25.359 21.1384 25.1637C20.9431 24.9683 20.8333 24.7034 20.8333 24.4271V19.2188Z" stroke="white" stroke-width="2" stroke-linecap="round" stroke-linejoin="round"/>
<path d="M14.5833 33.8021H20.8333V39.0104C20.8333 39.2867 20.7236 39.5516 20.5282 39.747C20.3329 39.9423 20.0679 40.0521 19.7916 40.0521H15.625C15.3487 40.0521 15.0838 39.9423 14.8884 39.747C14.6931 39.5516 14.5833 39.2867 14.5833 39.0104V33.8021Z" stroke="white" stroke-width="2" stroke-linecap="round" stroke-linejoin="round"/>
<path d="M29.1667 33.8021H35.4167V39.0104C35.4167 39.2867 35.3069 39.5516 35.1116 39.747C34.9162 39.9423 34.6513 40.0521 34.375 40.0521H30.2084C29.9321 40.0521 29.6671 39.9423 29.4718 39.747C29.2764 39.5516 29.1667 39.2867 29.1667 39.0104V33.8021Z" stroke="white" stroke-width="2" stroke-linecap="round" stroke-linejoin="round"/>
<path d="M46.875 12.9687C47.1513 12.9687 47.4162 12.859 47.6116 12.6637C47.8069 12.4683 47.9167 12.2033 47.9167 11.9271V9.55417C47.917 9.33527 47.8483 9.12186 47.7204 8.94422C47.5925 8.76658 47.4119 8.63375 47.2042 8.56458L25.625 1.7125C25.2143 1.58192 24.7732 1.58192 24.3625 1.7125L2.82086 8.57708C2.60579 8.64273 2.41774 8.77622 2.28481 8.95759C2.15188 9.13896 2.08121 9.35847 2.08336 9.58333V11.9271C2.08336 12.2033 2.19311 12.4683 2.38846 12.6637C2.58381 12.859 2.84876 12.9687 3.12503 12.9687H46.875Z" stroke="white" stroke-width="2" stroke-linecap="round" stroke-linejoin="round"/>
</svg>
