<svg width="32" height="33" viewBox="0 0 32 33" fill="none" xmlns="http://www.w3.org/2000/svg">
<path d="M31.856 26.0056L31.6967 25.5257C31.3195 24.4044 30.083 23.235 28.9471 22.9269L24.743 21.7785C23.6029 21.4683 21.9766 21.8854 21.1425 22.7194L19.6209 24.241C14.0913 22.7468 9.7552 18.4106 8.26303 12.882L9.78464 11.3604C10.6188 10.5263 11.0358 8.9021 10.7256 7.76201L9.57922 3.55582C9.26905 2.41781 8.09751 1.18135 6.97841 0.808278L6.4985 0.646922C5.37726 0.273845 3.77819 0.651147 2.94411 1.48522L0.668092 3.76332C0.261483 4.16778 0.00161026 5.32464 0.00161026 5.32886C-0.0779947 12.555 2.75546 19.5171 7.86695 24.6286C12.9659 29.7276 19.9019 32.5569 27.107 32.4961C27.1447 32.4961 28.3351 32.2404 28.7417 31.8358L31.0177 29.5598C31.8518 28.7258 32.229 27.1268 31.856 26.0056Z" fill="#F0785A"/>
</svg>
