<svg width="32" height="33" viewBox="0 0 32 33" fill="none" xmlns="http://www.w3.org/2000/svg">
<g clip-path="url(#clip0_33_273)">
<path d="M16 32.5C24.8366 32.5 32 25.3366 32 16.5C32 7.66344 24.8366 0.5 16 0.5C7.16344 0.5 0 7.66344 0 16.5C0 25.3366 7.16344 32.5 16 32.5Z" fill="#039BE5"/>
<path d="M7.32153 16.1534L22.7482 10.2054C23.4642 9.9467 24.0895 10.38 23.8575 11.4627L23.8589 11.4614L21.2322 23.836C21.0375 24.7134 20.5162 24.9267 19.7869 24.5134L15.7869 21.5654L13.8575 23.424C13.6442 23.6374 13.4642 23.8174 13.0509 23.8174L13.3349 19.7467L20.7482 13.0494C21.0709 12.7654 20.6762 12.6054 20.2509 12.888L11.0895 18.656L7.1402 17.424C6.28286 17.152 6.2642 16.5667 7.32153 16.1534Z" fill="white"/>
</g>
<defs>
<clipPath id="clip0_33_273">
<rect width="32" height="32" fill="white" transform="translate(0 0.5)"/>
</clipPath>
</defs>
</svg>
