<svg width="32" height="33" viewBox="0 0 32 33" fill="none" xmlns="http://www.w3.org/2000/svg">
<path d="M0 32.5L2.752 24.2446C1.35559 21.8959 0.551724 19.1549 0.551724 16.2241C0.551724 7.54 7.59172 0.5 16.2759 0.5C24.96 0.5 32 7.54 32 16.2241C32 24.9083 24.96 31.9483 16.2759 31.9483C13.6337 31.9483 11.1454 31.2934 8.96 30.1425L0 32.5Z" fill="#2CB742"/>
<path d="M26.3078 21.4572C25.5818 20.085 22.9043 18.5159 22.9043 18.5159C22.2985 18.1706 21.5674 18.1319 21.2221 18.7477C21.2221 18.7477 20.352 19.791 20.1307 19.941C19.12 20.6257 18.1837 20.5992 17.2386 19.6541L15.0422 17.4577L12.8458 15.2613C11.9007 14.3162 11.8742 13.3799 12.5589 12.3692C12.709 12.1479 13.7523 11.2779 13.7523 11.2779C14.368 10.9319 14.3294 10.2015 13.984 9.59566C13.984 9.59566 12.4149 6.91814 11.0427 6.19207C10.459 5.88311 9.74233 5.99125 9.27557 6.45801L8.30564 7.42794C5.22868 10.5049 6.74371 13.9786 9.82068 17.0555L12.6328 19.8677L15.445 22.6798C18.5219 25.7568 21.9956 27.2718 25.0725 24.1948L26.0425 23.2249C26.5092 22.757 26.6168 22.0404 26.3078 21.4572Z" fill="white"/>
</svg>
