<svg width="40" height="40" viewBox="0 0 40 40" fill="none" xmlns="http://www.w3.org/2000/svg">
<g clip-path="url(#clip0_16_1293)">
<path d="M21.6882 21.2857C20.6798 21.2857 19.7356 21.4966 18.8647 21.7028V25.0121C18.8647 27.0701 19.5981 27.7668 22.0686 27.7668C24.6491 27.7668 24.9608 26.653 24.9608 24.4208C24.9608 21.9824 24.3695 21.2857 21.6882 21.2857Z" fill="url(#paint0_linear_16_1293)"/>
<path d="M39.2709 18.2239C39.7567 18.2239 40.0042 17.9443 40.0042 17.4218V12.4029C40.0042 11.1149 39.5505 9.99656 38.6475 9.05695L30.7318 1.04503C29.9297 0.242924 28.9214 0 27.7709 0H12.2329C11.0825 0 10.0741 0.242924 9.27201 1.04503L1.36093 9.05695C0.421315 10.0011 -0.000364872 11.1149 -0.000364872 12.4029V27.7667C-0.0370327 29.0547 0.384647 29.9943 1.28759 30.9018L9.05659 38.6708C9.96411 39.5783 10.9725 39.9954 12.2284 39.9954H27.7709C29.0268 39.9954 30.0352 39.5783 30.9427 38.6708L38.7117 30.9018C39.6192 30.0309 39.9996 29.0547 39.9996 27.7667V22.4728C39.963 22.019 39.72 21.7761 39.2663 21.7761H36.9333V23.4124C36.9333 24.6316 36.7591 25.2595 35.7141 25.2595H34.6691C33.624 25.2595 33.4498 24.6316 33.4498 23.4124V21.7761H31.8135C30.5943 21.7761 29.9664 21.6019 29.9664 20.5569V19.4431C29.9664 18.3981 30.5943 18.2239 31.8135 18.2239H33.4498V16.5876C33.4498 15.3684 33.624 14.7405 34.6691 14.7405H35.7141C36.7591 14.7405 36.9333 15.3684 36.9333 16.5876V18.2239H39.2709ZM12.7417 29.128C12.7417 30.3472 12.5309 30.9751 11.5225 30.9751H10.34C9.32701 30.9751 9.12075 30.3472 9.12075 29.128V14.0759C9.12075 13.3792 8.90991 13.1362 8.46073 13.1362H7.72738C6.50817 13.1362 5.88024 12.9254 5.88024 11.917V10.7666C5.88024 9.75822 6.50817 9.54738 7.72738 9.54738H10.8991C12.1183 9.54738 12.7463 9.75822 12.7463 10.7666V29.128H12.7417ZM22.0003 31.2501C14.8593 31.2501 15.3084 27.7667 15.2764 19.8923C15.2764 11.7383 16.0097 9.16237 22.3853 9.16237C26.46 9.16237 28.2384 10.2074 28.2384 14.3188C28.2384 15.2584 27.8534 15.5013 26.8817 15.5013H26.0475C25.2454 15.5013 24.7596 15.2905 24.7596 14.5938C24.7596 12.8842 24.2371 12.7466 21.8674 12.7466C19.1127 12.7466 18.8698 13.9292 18.8698 17.2064V17.9031C18.8698 18.3202 19.1494 18.4622 19.4977 18.3889C20.4053 18.2147 21.2761 18.146 22.147 18.146C26.3638 18.146 28.5593 19.2598 28.5593 23.9991C28.5501 29.7513 26.5288 31.2501 22.0003 31.2501Z" fill="url(#paint1_linear_16_1293)"/>
</g>
<defs>
<linearGradient id="paint0_linear_16_1293" x1="23.8533" y1="22.0095" x2="19.3796" y2="26.5537" gradientUnits="userSpaceOnUse">
<stop stop-color="#FFD600"/>
<stop offset="0.520833" stop-color="#F9A82B"/>
<stop offset="1" stop-color="#D77A84"/>
</linearGradient>
<linearGradient id="paint1_linear_16_1293" x1="32.7363" y1="4.46615" x2="5.20675" y2="34.2039" gradientUnits="userSpaceOnUse">
<stop stop-color="#FFD600"/>
<stop offset="0.520833" stop-color="#F9A82B"/>
<stop offset="1" stop-color="#D77A84"/>
</linearGradient>
<clipPath id="clip0_16_1293">
<rect width="40" height="40" fill="white"/>
</clipPath>
</defs>
</svg>
