<svg width="24" height="24" viewBox="0 0 24 24" fill="none" xmlns="http://www.w3.org/2000/svg">
<mask id="mask0_16_1336" style="mask-type:alpha" maskUnits="userSpaceOnUse" x="0" y="0" width="24" height="24">
<circle cx="12" cy="12" r="12" fill="#C4C4C4"/>
</mask>
<g mask="url(#mask0_16_1336)">
<path d="M23.5891 4.29272C23.3707 2.24597 21.7542 0.62915 19.7073 0.410889C14.5741 -0.136963 9.4259 -0.136963 4.29291 0.410889C2.24597 0.629333 0.629333 2.24597 0.410889 4.29272C-0.136963 9.42572 -0.136963 14.5741 0.410889 19.7071C0.629333 21.754 2.24597 23.3707 4.29272 23.5891C9.42572 24.137 14.5741 24.137 19.7073 23.5891C21.7542 23.3707 23.3707 21.754 23.5891 19.7071C24.137 14.5741 24.137 9.4259 23.5891 4.29272Z" fill="url(#paint0_radial_16_1336)"/>
<path d="M22.2837 5.1608C22.09 3.34457 20.6555 1.90994 18.8391 1.71603C14.2842 1.23007 9.71573 1.23007 5.1608 1.71603C3.34457 1.90994 1.90994 3.34457 1.71603 5.1608C1.23007 9.71573 1.23007 14.2842 1.71603 18.839C1.90994 20.6554 3.34457 22.09 5.1608 22.2837C9.71573 22.7699 14.2842 22.7699 18.839 22.2837C20.6554 22.09 22.09 20.6554 22.2837 18.839C22.7699 14.2842 22.7699 9.71573 22.2837 5.1608Z" fill="url(#paint1_linear_16_1336)"/>
<path d="M23.9535 14.5852L16.7955 7.42746C16.6285 7.20828 16.3654 7.06601 16.0686 7.06601C15.5636 7.06601 15.154 7.47543 15.154 7.98062C15.154 8.27744 15.2962 8.54056 15.5154 8.70755L23.8255 17.0178C23.8819 16.2072 23.9245 15.3962 23.9535 14.5852Z" fill="url(#paint2_linear_16_1336)"/>
</g>
<path d="M4.45737 9.08915C4.50735 8.73613 4.54544 8.38109 4.60898 8.03062C4.96915 6.04558 6.37448 4.69499 8.38388 4.62578C10.8033 4.54265 13.23 4.53825 15.649 4.62541C17.836 4.70414 19.4198 6.32353 19.4881 8.51127C19.5608 10.8343 19.5608 13.1631 19.4881 15.4861C19.4198 17.6739 17.8365 19.2931 15.6491 19.372C13.2301 19.4593 10.8029 19.4615 8.38406 19.3707C6.19669 19.2885 4.6846 17.6654 4.5383 15.4744C4.52567 15.2849 4.48502 15.097 4.45737 14.9084C4.45737 12.9686 4.45737 11.0288 4.45737 9.08915ZM12.002 18.0754C13.1091 18.0754 14.2173 18.1086 15.3228 18.0677C17.0563 18.0035 18.1225 16.9689 18.163 15.2371C18.2132 13.0792 18.2132 10.9184 18.163 8.7603C18.1225 7.02885 17.0556 5.97014 15.3228 5.93333C13.1236 5.88682 10.9219 5.88719 8.72263 5.93333C7.00308 5.9694 5.93375 7.0067 5.88705 8.7191C5.82773 10.9043 5.82773 13.0933 5.88705 15.2785C5.93375 16.9907 7.00308 18.004 8.72281 18.0677C9.81448 18.1084 10.9089 18.0754 12.002 18.0754Z" fill="url(#paint3_linear_16_1336)"/>
<path d="M4.45737 9.08915C4.50735 8.73613 4.54544 8.38109 4.60898 8.03062C4.96915 6.04558 6.37448 4.69499 8.38388 4.62578C10.8033 4.54265 13.23 4.53825 15.649 4.62541C17.836 4.70414 19.4198 6.32353 19.4881 8.51127C19.5608 10.8343 19.5608 13.1631 19.4881 15.4861C19.4198 17.6739 17.8365 19.2931 15.6491 19.372C13.2301 19.4593 10.8029 19.4615 8.38406 19.3707C6.19669 19.2885 4.6846 17.6654 4.5383 15.4744C4.52567 15.2849 4.48502 15.097 4.45737 14.9084C4.45737 12.9686 4.45737 11.0288 4.45737 9.08915V9.08915ZM12.002 18.0754C13.1091 18.0754 14.2173 18.1086 15.3228 18.0677C17.0563 18.0035 18.1225 16.9689 18.163 15.2371C18.2132 13.0792 18.2132 10.9184 18.163 8.7603C18.1225 7.02885 17.0556 5.97014 15.3228 5.93333C13.1236 5.88682 10.9219 5.88719 8.72263 5.93333C7.00308 5.9694 5.93375 7.0067 5.88705 8.7191C5.82773 10.9043 5.82773 13.0933 5.88705 15.2785C5.93375 16.9907 7.00308 18.004 8.72281 18.0677C9.81448 18.1084 10.9089 18.0754 12.002 18.0754V18.0754Z" fill="white"/>
<path d="M11.9999 8.15607C9.87695 8.15607 8.15576 9.87707 8.15576 12C8.15576 14.1231 9.87695 15.8441 11.9999 15.8441C14.123 15.8441 15.844 14.1231 15.844 12C15.844 9.87707 14.123 8.15607 11.9999 8.15607ZM11.9999 14.5206C10.6077 14.5206 9.47925 13.3922 9.47925 12C9.47925 10.6078 10.6077 9.47937 11.9999 9.47937C13.392 9.47937 14.5205 10.6078 14.5205 12C14.5205 13.3922 13.392 14.5206 11.9999 14.5206Z" fill="white"/>
<path d="M16.9829 7.98067C16.9829 8.48567 16.5735 8.8951 16.0685 8.8951C15.5635 8.8951 15.1539 8.48567 15.1539 7.98067C15.1539 7.47548 15.5635 7.06606 16.0685 7.06606C16.5735 7.06606 16.9829 7.47548 16.9829 7.98067Z" fill="white"/>
<defs>
<radialGradient id="paint0_radial_16_1336" cx="0" cy="0" r="1" gradientUnits="userSpaceOnUse" gradientTransform="translate(4.91986 20.9741) scale(26.4678)">
<stop stop-color="#FAE100"/>
<stop offset="0.0544" stop-color="#FADC04"/>
<stop offset="0.1167" stop-color="#FBCE0E"/>
<stop offset="0.1829" stop-color="#FCB720"/>
<stop offset="0.2514" stop-color="#FE9838"/>
<stop offset="0.3054" stop-color="#FF7950"/>
<stop offset="0.4922" stop-color="#FF1C74"/>
<stop offset="1" stop-color="#6C1CD1"/>
</radialGradient>
<linearGradient id="paint1_linear_16_1336" x1="9.20494" y1="10.4278" x2="-31.4539" y2="-12.4428" gradientUnits="userSpaceOnUse">
<stop stop-color="#A1B5D8" stop-opacity="0"/>
<stop offset="0.3094" stop-color="#90A2BD" stop-opacity="0.309804"/>
<stop offset="0.7554" stop-color="#7C8B9C" stop-opacity="0.756863"/>
<stop offset="1" stop-color="#748290"/>
</linearGradient>
<linearGradient id="paint2_linear_16_1336" x1="18.4597" y1="10.3717" x2="14.5221" y2="6.43414" gradientUnits="userSpaceOnUse">
<stop stop-color="#833AB4" stop-opacity="0"/>
<stop offset="1" stop-color="#833AB4"/>
</linearGradient>
<linearGradient id="paint3_linear_16_1336" x1="16.7653" y1="7.26793" x2="7.05672" y2="16.9765" gradientUnits="userSpaceOnUse">
<stop stop-color="#833AB4"/>
<stop offset="0.0922" stop-color="#9C3495"/>
<stop offset="0.2927" stop-color="#DC2546"/>
<stop offset="0.392" stop-color="#FD1D1D"/>
<stop offset="0.5589" stop-color="#FC6831"/>
<stop offset="0.6887" stop-color="#FC9B40"/>
<stop offset="0.7521" stop-color="#FCAF45"/>
<stop offset="0.7806" stop-color="#FDB750"/>
<stop offset="0.8656" stop-color="#FECB6A"/>
<stop offset="0.9415" stop-color="#FFD87A"/>
<stop offset="1" stop-color="#FFDC80"/>
</linearGradient>
</defs>
</svg>
