<svg width="24" height="24" viewBox="0 0 24 24" fill="none" xmlns="http://www.w3.org/2000/svg">
<path d="M12 0C18.6277 0 24 5.373 24 12C24 18.6278 18.6277 24 12 24C5.37217 24 0 18.6277 0 12C0 5.373 5.37225 0 12 0Z" fill="#26A6D1"/>
<path d="M19.5024 8.0842C18.9782 8.31067 18.4141 8.46292 17.8224 8.53196C18.4269 8.18018 18.8904 7.62441 19.1086 6.96073C18.5432 7.28697 17.9176 7.52325 17.2509 7.64995C16.7176 7.09872 15.9579 6.75444 15.1164 6.75444C13.5024 6.75444 12.1929 8.02422 12.1929 9.59166C12.1929 9.81443 12.2185 10.0312 12.2686 10.2389C9.83865 10.1205 7.68315 8.99018 6.24168 7.27346C5.98967 7.69271 5.84566 8.17943 5.84566 8.69994C5.84566 9.68393 6.36163 10.5539 7.14617 11.0617C6.66621 11.0467 6.21614 10.9199 5.82095 10.7062V10.7422C5.82095 12.1177 6.82891 13.2645 8.16691 13.5255C7.92165 13.59 7.66363 13.6253 7.39662 13.6253C7.20837 13.6253 7.0254 13.608 6.84687 13.5743C7.21884 14.7023 8.29889 15.5227 9.57914 15.5453C8.57793 16.3073 7.31712 16.7603 5.94691 16.7603C5.71064 16.7603 5.47815 16.7468 5.24863 16.7206C6.54387 17.5261 8.07991 17.9963 9.73212 17.9963C15.1111 17.9963 18.0527 13.6703 18.0527 9.92029L18.0444 9.55277C18.6143 9.15371 19.1101 8.65421 19.5024 8.0842Z" fill="white"/>
</svg>
