<svg width="24" height="24" viewBox="0 0 24 24" fill="none" xmlns="http://www.w3.org/2000/svg">
<path d="M12 24C18.6274 24 24 18.6274 24 12C24 5.37258 18.6274 0 12 0C5.37258 0 0 5.37258 0 12C0 18.6274 5.37258 24 12 24Z" fill="#4D76A1"/>
<path fill-rule="evenodd" clip-rule="evenodd" d="M11.5467 17.2631H12.4885C12.4885 17.2631 12.773 17.2318 12.9183 17.0752C13.052 16.9315 13.0477 16.6615 13.0477 16.6615C13.0477 16.6615 13.0293 15.3977 13.6158 15.2116C14.1941 15.0283 14.9365 16.4331 15.7235 16.9732C16.3186 17.382 16.7708 17.2924 16.7708 17.2924L18.8751 17.2631C18.8751 17.2631 19.9759 17.1952 19.4539 16.3298C19.4111 16.2589 19.1499 15.6895 17.8894 14.5194C16.57 13.2948 16.7467 13.4929 18.336 11.3745C19.304 10.0844 19.6909 9.29678 19.5701 8.95944C19.4548 8.63815 18.7429 8.72307 18.7429 8.72307L16.3736 8.73783C16.3736 8.73783 16.198 8.71387 16.0677 8.79173C15.9404 8.8681 15.8585 9.04608 15.8585 9.04608C15.8585 9.04608 15.4835 10.0444 14.9834 10.8934C13.9284 12.6849 13.5065 12.7795 13.3341 12.6682C12.933 12.409 13.0332 11.6267 13.0332 11.071C13.0332 9.33486 13.2965 8.61098 12.5204 8.42359C12.2629 8.36135 12.0733 8.32027 11.4147 8.31364C10.5693 8.30487 9.85379 8.31621 9.44864 8.51472C9.17911 8.6467 8.97119 8.94083 9.09783 8.95773C9.25441 8.97869 9.60907 9.05335 9.7971 9.3094C10.0399 9.63968 10.0313 10.3815 10.0313 10.3815C10.0313 10.3815 10.1708 12.4252 9.70555 12.6791C9.38618 12.8533 8.94809 12.4977 8.00752 10.8724C7.52558 10.0399 7.16172 9.11966 7.16172 9.11966C7.16172 9.11966 7.09155 8.94768 6.96641 8.85569C6.81454 8.74425 6.60234 8.70874 6.60234 8.70874L4.35092 8.7235C4.35092 8.7235 4.01294 8.73291 3.88887 8.87987C3.77849 9.01057 3.8801 9.28095 3.8801 9.28095C3.8801 9.28095 5.64273 13.4047 7.63852 15.4829C9.46854 17.3882 11.5467 17.2631 11.5467 17.2631Z" fill="white"/>
</svg>
