<svg width="167" height="60" viewBox="0 0 167 60" fill="none" xmlns="http://www.w3.org/2000/svg">
<path d="M57.9145 29.7907C57.9145 45.323 45.323 57.9145 29.7905 57.9145C14.2582 57.9145 1.66666 45.323 1.66666 29.7907C1.66666 14.2582 14.2582 1.66666 29.7905 1.66666C30.0073 1.66666 30.2232 1.66999 30.4388 1.67499C30.4847 1.67599 30.5305 1.67682 30.5763 1.67816C30.7857 1.68399 30.9945 1.69166 31.2025 1.70199C31.2388 1.70382 31.2752 1.70599 31.3115 1.70799C31.5042 1.71832 31.6965 1.73049 31.8882 1.74449C31.9197 1.74682 31.9513 1.74882 31.9828 1.75132C32.1905 1.76732 32.3973 1.78582 32.6037 1.80632C32.6497 1.81099 32.6955 1.81582 32.7413 1.82049C32.9502 1.84232 33.1585 1.86566 33.366 1.89199L33.3965 1.89599C33.5978 1.92182 33.7983 1.95016 33.9982 1.98032C34.041 1.98666 34.0838 1.99299 34.1265 1.99949C34.3287 2.03082 34.5303 2.06416 34.731 2.09966C34.7678 2.10616 34.8047 2.11316 34.8415 2.11982C35.0283 2.15382 35.2147 2.18932 35.4002 2.22699C35.4272 2.23249 35.4542 2.23749 35.481 2.24299C35.6808 2.28399 35.8798 2.32766 36.0782 2.37299C36.1227 2.38316 36.167 2.39349 36.2115 2.40382C36.4113 2.45049 36.6105 2.49866 36.8087 2.54966C36.8237 2.55349 36.8385 2.55766 36.8533 2.56149C37.0423 2.61032 37.2302 2.66149 37.4175 2.71416C37.4572 2.72516 37.4967 2.73616 37.5363 2.74749C37.7293 2.80266 37.9217 2.85982 38.113 2.91899C38.1502 2.93049 38.1873 2.94249 38.2245 2.95416C38.4037 3.01032 38.582 3.06816 38.7595 3.12782C38.7825 3.13549 38.8055 3.14299 38.8285 3.15066C39.0197 3.21549 39.2095 3.28282 39.3988 3.35166L39.5222 3.39682C39.7118 3.46666 39.9007 3.53816 40.0883 3.61199C40.1075 3.61949 40.1265 3.62732 40.1455 3.63499C40.3215 3.70466 40.4965 3.77632 40.6707 3.84949C40.7058 3.86432 40.7412 3.87882 40.7763 3.89382C40.9593 3.97149 41.1415 4.05116 41.3225 4.13282C41.3588 4.14899 41.3948 4.16566 41.431 4.18216C41.6042 4.26099 41.7767 4.34132 41.948 4.42349C41.9633 4.43099 41.9788 4.43799 41.9943 4.44549C42.1757 4.53299 42.3558 4.62299 42.535 4.71416C42.5728 4.73349 42.6107 4.75282 42.6485 4.77216C42.8255 4.86349 43.0017 4.95599 43.1765 5.05082C43.2 5.06349 43.2232 5.07666 43.2467 5.08949C43.4082 5.17749 43.5685 5.26732 43.7282 5.35866C43.7592 5.37632 43.7905 5.39399 43.8215 5.41182C43.9922 5.51032 44.1618 5.61066 44.3302 5.71249C44.3658 5.73416 44.4012 5.75599 44.4367 5.77766C44.6007 5.87782 44.7637 5.97932 44.9255 6.08266L44.9555 6.10166C45.1237 6.20949 45.2902 6.31966 45.456 6.43116C45.4922 6.45532 45.5283 6.47966 45.5645 6.50416C45.7273 6.61466 45.889 6.72666 46.0493 6.84032C46.0738 6.85766 46.0978 6.87532 46.1223 6.89282C46.2695 6.99799 46.4155 7.10449 46.5605 7.21232C46.5885 7.23316 46.6167 7.25382 46.6447 7.27466C46.8012 7.39216 46.9563 7.51116 47.1103 7.63182C47.1438 7.65799 47.1773 7.68449 47.2108 7.71099C47.368 7.83516 47.5243 7.96049 47.6787 8.08782L47.6802 8.08916C47.8352 8.21699 47.9882 8.34699 48.1403 8.47816C48.1728 8.50616 48.2053 8.53416 48.2378 8.56232C48.3852 8.69049 48.5313 8.81999 48.676 8.95116C48.7013 8.97416 48.7263 8.99732 48.7515 9.02032C48.8847 9.14199 49.0167 9.26482 49.1473 9.38899C49.1697 9.40999 49.1922 9.43099 49.2143 9.45216C49.3562 9.58766 49.4965 9.72499 49.6355 9.86349C49.666 9.89382 49.6963 9.92432 49.7268 9.95482C49.8677 10.0965 50.0075 10.239 50.1453 10.3835L50.1607 10.3998C50.2952 10.5412 50.4277 10.684 50.5593 10.8282C50.587 10.8583 50.6148 10.8887 50.6423 10.9192C50.774 11.0645 50.9042 11.211 51.0328 11.3592C51.0558 11.3857 51.0785 11.4123 51.1013 11.439C51.2198 11.5763 51.337 11.7148 51.4528 11.8547C51.471 11.8765 51.4893 11.898 51.5073 11.92C51.6323 12.0715 51.7553 12.2248 51.8772 12.3792C51.9043 12.4135 51.9312 12.4478 51.9582 12.4823C52.0805 12.6388 52.2018 12.7963 52.321 12.9555C52.33 12.9675 52.3387 12.9797 52.3475 12.9917C52.4605 13.1428 52.5715 13.2955 52.6813 13.4492C52.7057 13.4832 52.73 13.517 52.754 13.551C52.8742 13.7203 52.9927 13.8908 53.109 14.063L53.113 14.0688C53.2378 14.2537 53.3607 14.4403 53.4813 14.6283L53.4867 14.6367C53.6063 14.8235 53.7238 15.0117 53.8392 15.2013L53.8463 15.2132C53.9622 15.404 54.0758 15.5962 54.1872 15.79L54.1892 15.7932C54.301 15.9878 54.4107 16.184 54.5182 16.3817L54.5223 16.3895C54.6288 16.5855 54.733 16.783 54.8348 16.9817L54.8403 16.9925C54.9427 17.1923 55.0427 17.3935 55.1402 17.596L55.1417 17.599C55.2395 17.8022 55.335 18.0067 55.4282 18.2125L55.4323 18.2217C55.5245 18.4257 55.6143 18.6312 55.7018 18.8377L55.7065 18.8492C55.7943 19.0567 55.8797 19.2655 55.9625 19.4757L55.9645 19.4803C56.0477 19.6915 56.1283 19.9038 56.2067 20.1175L56.2093 20.1247C56.2872 20.3373 56.3625 20.5513 56.4353 20.7665L56.438 20.7743C56.5108 20.9895 56.581 21.2058 56.6487 21.4232L56.651 21.4308C56.7188 21.6488 56.784 21.868 56.8467 22.0883L56.8487 22.0953C56.911 22.315 56.9707 22.5357 57.0278 22.7575L57.0302 22.7672C57.0868 22.9875 57.1408 23.2087 57.1923 23.431L57.196 23.4468C57.2473 23.6698 57.2962 23.894 57.3423 24.1192L57.3435 24.1253C57.3898 24.3517 57.4333 24.579 57.4742 24.8073L57.4762 24.8185C57.5167 25.0452 57.5543 25.2725 57.5893 25.501L57.5913 25.5145C57.6262 25.7427 57.6582 25.9715 57.6875 26.2013L57.6892 26.2148C57.7187 26.4468 57.7453 26.6797 57.769 26.9133L57.7693 26.9163C57.7932 27.151 57.814 27.3865 57.832 27.6228L57.8327 27.6317C57.8505 27.8655 57.8653 28.1003 57.8773 28.3358L57.8782 28.351C57.89 28.5862 57.899 28.8222 57.905 29.0588L57.9053 29.0697C57.9113 29.3093 57.9145 29.5497 57.9145 29.7907Z" fill="url(#paint0_linear_145_42)"/>
<path fill-rule="evenodd" clip-rule="evenodd" d="M11.1746 16.5827L6.95757 32.587C10.0644 31.5652 13.2197 31.1759 15.6041 31.1759C20.9079 31.1759 23.3107 32.7817 22.5581 36.0417C21.8166 39.2534 18.2457 40.8104 13.9151 40.8104C10.6062 40.8104 6.97556 39.8859 4.69256 38.1829L4.0029 41.0259C4.80473 42.8637 5.79674 44.5992 6.9549 46.2075C8.89007 46.8017 11.0566 47.1847 13.2706 47.1847C20.5694 47.1847 28.0596 43.8272 29.8344 36.1392C31.5869 28.5482 26.7737 25.58 20.1561 25.58C18.7937 25.58 17.2404 25.7747 15.7617 26.0667L17.1684 20.5729C17.3156 19.9979 17.8346 19.5965 18.4279 19.5985L31.6706 19.6437L33.1197 13.3667H15.6172C13.9241 13.3667 11.7372 14.543 11.1746 16.5827Z" fill="white"/>
<path fill-rule="evenodd" clip-rule="evenodd" d="M54.0031 37.4528C55.1264 32.587 52.7049 30.008 49.5834 28.9862C52.9447 27.9157 55.4491 25.2882 56.2354 21.882C56.3247 21.4947 56.3897 21.1198 56.4321 20.7568C55.6416 18.4245 54.5532 16.2295 53.2126 14.2172C51.4707 13.2328 49.1219 12.7342 46.3772 12.7342C42.2899 12.7342 38.3184 13.7073 34.9796 15.313L33.4181 22.0767C37.1387 20.0817 40.9156 19.1083 43.8837 19.1083C47.8737 19.1083 49.6404 20.5195 49.0899 22.9038C48.5619 25.1908 46.2861 26.4073 43.0259 26.4073L38.4632 26.3587L36.9766 32.587H42.4264C45.7352 32.587 47.9322 33.6088 47.2807 36.431C46.5617 39.5452 43.1667 40.7617 39.4199 40.7617C35.6134 40.8103 32.9809 40.5793 29.7172 38.487L28.1557 45.2507C31.5431 46.8077 34.2391 47.1847 38.5209 47.1847C45.3332 47.1847 52.3966 44.4112 54.0031 37.4528Z" fill="white"/>
<path fill-rule="evenodd" clip-rule="evenodd" d="M75.9138 20.4075C80.613 20.4075 83.8475 21.9285 82.6935 26.9265C81.5398 31.9245 77.6093 33.4185 72.9038 33.4455H70.4048L69.3755 37.9042C69.1705 38.7923 68.3797 39.4213 67.4683 39.4213H64L68.0392 21.9263C68.2445 21.0373 69.0362 20.4075 69.9487 20.4075H75.9138ZM75.155 24.7535H73.0713C72.6852 24.7535 72.3502 25.0198 72.2633 25.3962L71.4082 29.0995H74.1517C75.6728 29.0995 77.1375 28.6377 77.5327 26.9265C77.9277 25.2153 76.6763 24.7535 75.155 24.7535ZM77.3545 39.4213L88.5092 21.5377C88.9478 20.8347 89.7178 20.4075 90.5465 20.4075H94.647L97.7272 39.4213H92.566L92.1693 36.4337H84.2918L82.5155 39.4213H77.3545ZM86.7267 32.3592H91.616L90.927 26.872C90.8707 26.4105 90.8142 25.9487 90.8833 24.9435C90.4883 25.9487 90.2187 26.4105 89.9492 26.872L86.7267 32.3592ZM98.1255 39.4213L99.1352 35.0753H101.106C104.218 31.1522 105.96 26.4543 107.123 21.881C107.344 21.0135 108.126 20.4075 109.021 20.4075H121.062L117.675 35.0753H119.572L118.911 37.9222C118.707 38.8002 117.925 39.4213 117.024 39.4213H114.764H114.771H102.276H102.269H98.1255ZM106.403 35.0753H112.65L115.002 24.8892H111.841C111.381 24.8892 110.973 25.1875 110.835 25.6268C109.744 29.0952 108.395 32.4878 106.403 35.0753ZM132.128 39.4213L133.921 31.6527C134.16 30.6207 134.462 29.4253 134.751 28.529L125.909 38.2012C125.198 38.9785 124.194 39.4213 123.14 39.4213H120.04L124.078 21.9315C124.284 21.0393 125.078 20.4075 125.994 20.4075H129.455L127.661 28.1758C127.417 29.2352 127.114 30.4303 126.825 31.3268L135.652 21.6542C136.376 20.8598 137.402 20.4075 138.477 20.4075H141.543L137.505 37.8972C137.299 38.7893 136.504 39.4213 135.589 39.4213H132.128ZM153.198 20C159.989 20 162.318 24.6177 161.095 29.9143C159.872 35.211 155.411 39.8288 148.62 39.8288C141.829 39.8288 139.5 35.211 140.723 29.9143C141.946 24.6177 146.407 20 153.198 20ZM152.132 24.6177C148.845 24.6177 146.586 26.872 145.884 29.9143C145.181 32.9567 146.399 35.211 149.686 35.211C152.973 35.211 155.232 32.9567 155.934 29.9143C156.637 26.872 155.419 24.6177 152.132 24.6177Z" fill="#464649"/>
<defs>
<linearGradient id="paint0_linear_145_42" x1="-148.206" y1="-68.5634" x2="-117.571" y2="-115.737" gradientUnits="userSpaceOnUse">
<stop stop-color="#EC7467"/>
<stop offset="0.12" stop-color="#F6993B"/>
<stop offset="1" stop-color="#FAFF00"/>
</linearGradient>
</defs>
</svg>
