<svg width="42" height="43" viewBox="0 0 42 43" fill="none" xmlns="http://www.w3.org/2000/svg">
<g clip-path="url(#clip0_110_1215)">
<path d="M40 0.5H2C0.89543 0.5 0 1.39543 0 2.5V40.5C0 41.6046 0.89543 42.5 2 42.5H40C41.1046 42.5 42 41.6046 42 40.5V2.5C42 1.39543 41.1046 0.5 40 0.5Z" fill="#EBEBEB"/>
<path d="M42 0.5H0V42.5H42V0.5Z" fill="#547580"/>
<path d="M40 2.5H2V40.5H40V2.5Z" fill="#D1D4D1"/>
<path d="M12.2137 28C3.81369 18 5.71369 6.83333 7.71369 2.5H40.2139V34.5C39.2139 35 22.7137 40.5 12.2137 28Z" fill="#C2C2C2"/>
<mask id="mask0_110_1215" style="mask-type:alpha" maskUnits="userSpaceOnUse" x="6" y="2" width="35" height="35">
<path d="M12.2137 28C3.81369 18 5.71369 6.83333 7.71369 2.5H40.2139V34.5C39.2139 35 22.7137 40.5 12.2137 28Z" fill="#545454"/>
</mask>
<g mask="url(#mask0_110_1215)">
<path d="M35.0459 5.56193H44.1024C44.5227 5.56193 44.8641 5.22147 44.8641 4.80025V1.26168C44.8641 0.841377 44.5237 0.5 44.1024 0.5H35.0459C34.6256 0.5 34.2842 0.84046 34.2842 1.26168V4.80025C34.2842 5.22147 34.6256 5.56193 35.0459 5.56193Z" fill="#F0785A"/>
<path d="M23.5483 5.56193H32.6049C33.0252 5.56193 33.3666 5.22147 33.3666 4.80025V1.26168C33.3666 0.841377 33.0261 0.5 32.6049 0.5H23.5483C23.128 0.5 22.7866 0.84046 22.7866 1.26168V4.80025C22.7875 5.22147 23.128 5.56193 23.5483 5.56193Z" fill="#F0785A"/>
<path d="M12.0517 5.56193H21.1083C21.5286 5.56193 21.87 5.22147 21.87 4.80025V1.26168C21.87 0.841377 21.5295 0.5 21.1083 0.5H12.0517C11.6314 0.5 11.29 0.84046 11.29 1.26168V4.80025C11.29 5.22147 11.6314 5.56193 12.0517 5.56193Z" fill="#F0785A"/>
<path d="M35.0459 17.5212H44.1024C44.5227 17.5212 44.8641 17.1807 44.8641 16.7595V13.2209C44.8641 12.8006 44.5237 12.4592 44.1024 12.4592H35.0459C34.6256 12.4592 34.2842 12.7997 34.2842 13.2209V16.7595C34.2842 17.1798 34.6256 17.5212 35.0459 17.5212Z" fill="#F0785A"/>
<path d="M23.5483 17.5212H32.6049C33.0252 17.5212 33.3666 17.1807 33.3666 16.7595V13.2209C33.3666 12.8006 33.0261 12.4592 32.6049 12.4592H23.5483C23.128 12.4592 22.7866 12.7997 22.7866 13.2209V16.7595C22.7875 17.1798 23.128 17.5212 23.5483 17.5212Z" fill="#F0785A"/>
<path d="M12.0517 17.5212H21.1083C21.5286 17.5212 21.87 17.1807 21.87 16.7595V13.2209C21.87 12.8006 21.5295 12.4592 21.1083 12.4592H12.0517C11.6314 12.4592 11.29 12.7997 11.29 13.2209V16.7595C11.29 17.1798 11.6314 17.5212 12.0517 17.5212Z" fill="#F0785A"/>
<path d="M29.7558 11.5397H38.8124C39.2327 11.5397 39.5741 11.1992 39.5741 10.778V7.23946C39.5741 6.81916 39.2336 6.47778 38.8124 6.47778H29.7558C29.3355 6.47778 28.9941 6.81824 28.9941 7.23946V10.778C28.9941 11.1983 29.3355 11.5397 29.7558 11.5397Z" fill="#F0785A"/>
<path d="M18.2587 11.5397H27.3153C27.7356 11.5397 28.077 11.1992 28.077 10.778V7.23946C28.077 6.81916 27.7365 6.47778 27.3153 6.47778H18.2587C17.8384 6.47778 17.4971 6.81824 17.4971 7.23946V10.778C17.498 11.1983 17.8384 11.5397 18.2587 11.5397Z" fill="#F0785A"/>
<path d="M6.76167 11.5397H15.8183C16.2386 11.5397 16.5799 11.1992 16.5799 10.778V7.23946C16.5799 6.81916 16.2395 6.47778 15.8183 6.47778H6.76167C6.34138 6.47778 6 6.81824 6 7.23946V10.778C6 11.1983 6.34046 11.5397 6.76167 11.5397Z" fill="#F0785A"/>
<path d="M29.7558 23.4999H38.8124C39.2327 23.4999 39.5741 23.1595 39.5741 22.7382V19.1997C39.5741 18.7794 39.2336 18.438 38.8124 18.438H29.7558C29.3355 18.438 28.9941 18.7784 28.9941 19.1997V22.7382C28.9941 23.1585 29.3355 23.4999 29.7558 23.4999Z" fill="#F0785A"/>
<path d="M29.7558 29.5619H38.8124C39.2327 29.5619 39.5741 29.2215 39.5741 28.8002V25.2617C39.5741 24.8414 39.2336 24.5 38.8124 24.5H29.7558C29.3355 24.5 28.9941 24.8405 28.9941 25.2617V28.8002C28.9941 29.2205 29.3355 29.5619 29.7558 29.5619Z" fill="#F0785A"/>
<path d="M32.2587 35.5619H41.3153C41.7356 35.5619 42.077 35.2215 42.077 34.8002V31.2617C42.077 30.8414 41.7366 30.5 41.3153 30.5H32.2587C31.8384 30.5 31.4971 30.8405 31.4971 31.2617V34.8002C31.4971 35.2205 31.8384 35.5619 32.2587 35.5619Z" fill="#F0785A"/>
<path d="M18.2587 23.4999H27.3153C27.7356 23.4999 28.077 23.1595 28.077 22.7382V19.1997C28.077 18.7794 27.7365 18.438 27.3153 18.438H18.2587C17.8384 18.438 17.4971 18.7784 17.4971 19.1997V22.7382C17.498 23.1585 17.8384 23.4999 18.2587 23.4999Z" fill="#F0785A"/>
<path d="M18.2587 29.5619H27.3153C27.7356 29.5619 28.077 29.2215 28.077 28.8002V25.2617C28.077 24.8414 27.7365 24.5 27.3153 24.5H18.2587C17.8384 24.5 17.4971 24.8405 17.4971 25.2617V28.8002C17.498 29.2205 17.8384 29.5619 18.2587 29.5619Z" fill="#F0785A"/>
<path d="M20.7617 35.5619H29.8183C30.2386 35.5619 30.5799 35.2215 30.5799 34.8002V31.2617C30.5799 30.8414 30.2395 30.5 29.8183 30.5H20.7617C20.3414 30.5 20 30.8405 20 31.2617V34.8002C20.0009 35.2205 20.3414 35.5619 20.7617 35.5619Z" fill="#F0785A"/>
<path d="M6.76167 23.4999H15.8183C16.2386 23.4999 16.5799 23.1595 16.5799 22.7382V19.1997C16.5799 18.7794 16.2395 18.438 15.8183 18.438H6.76167C6.34138 18.438 6 18.7784 6 19.1997V22.7382C6 23.1585 6.34046 23.4999 6.76167 23.4999Z" fill="#F0785A"/>
<path d="M6.76167 29.5619H15.8183C16.2386 29.5619 16.5799 29.2215 16.5799 28.8002V25.2617C16.5799 24.8414 16.2395 24.5 15.8183 24.5H6.76167C6.34138 24.5 6 24.8405 6 25.2617V28.8002C6 29.2205 6.34046 29.5619 6.76167 29.5619Z" fill="#F0785A"/>
</g>
</g>
<defs>
<clipPath id="clip0_110_1215">
<rect width="42" height="42" fill="white" transform="translate(0 0.5)"/>
</clipPath>
</defs>
</svg>
