<svg width="165" height="60" viewBox="0 0 165 60" fill="none" xmlns="http://www.w3.org/2000/svg">
<path d="M57.3353 29.7907C57.3353 45.323 44.8698 57.9145 29.4926 57.9145C14.1156 57.9145 1.64999 45.323 1.64999 29.7907C1.64999 14.2582 14.1156 1.66666 29.4926 1.66666C29.7073 1.66666 29.9209 1.66999 30.1344 1.67499C30.1798 1.67599 30.2252 1.67682 30.2706 1.67816C30.4778 1.68399 30.6845 1.69166 30.8905 1.70199C30.9264 1.70382 30.9624 1.70599 30.9984 1.70799C31.1891 1.71832 31.3795 1.73049 31.5693 1.74449C31.6005 1.74682 31.6318 1.74882 31.663 1.75132C31.8686 1.76732 32.0734 1.78582 32.2776 1.80632C32.3232 1.81099 32.3685 1.81582 32.4139 1.82049C32.6207 1.84232 32.8269 1.86566 33.0323 1.89199L33.0625 1.89599C33.2619 1.92182 33.4603 1.95016 33.6582 1.98032C33.7006 1.98666 33.743 1.99299 33.7852 1.99949C33.9854 2.03082 34.185 2.06416 34.3837 2.09966C34.4201 2.10616 34.4566 2.11316 34.4931 2.11982C34.678 2.15382 34.8625 2.18932 35.0462 2.22699C35.0729 2.23249 35.0996 2.23749 35.1262 2.24299C35.324 2.28399 35.521 2.32766 35.7174 2.37299C35.7614 2.38316 35.8053 2.39349 35.8494 2.40382C36.0472 2.45049 36.2444 2.49866 36.4406 2.54966C36.4554 2.55349 36.4701 2.55766 36.4848 2.56149C36.6719 2.61032 36.8579 2.66149 37.0433 2.71416C37.0826 2.72516 37.1217 2.73616 37.161 2.74749C37.352 2.80266 37.5424 2.85982 37.7319 2.91899C37.7687 2.93049 37.8055 2.94249 37.8422 2.95416C38.0196 3.01032 38.1962 3.06816 38.3719 3.12782C38.3947 3.13549 38.4174 3.14299 38.4402 3.15066C38.6295 3.21549 38.8174 3.28282 39.0048 3.35166L39.1269 3.39682C39.3147 3.46666 39.5017 3.53816 39.6874 3.61199C39.7064 3.61949 39.7252 3.62732 39.744 3.63499C39.9183 3.70466 40.0915 3.77632 40.264 3.84949C40.2988 3.86432 40.3337 3.87882 40.3686 3.89382C40.5497 3.97149 40.7301 4.05116 40.9093 4.13282C40.9452 4.14899 40.9809 4.16566 41.0167 4.18216C41.1881 4.26099 41.3589 4.34132 41.5285 4.42349C41.5437 4.43099 41.559 4.43799 41.5744 4.44549C41.7539 4.53299 41.9323 4.62299 42.1096 4.71416C42.1471 4.73349 42.1846 4.75282 42.222 4.77216C42.3972 4.86349 42.5716 4.95599 42.7447 5.05082C42.768 5.06349 42.7909 5.07666 42.8142 5.08949C42.9741 5.17749 43.1328 5.26732 43.2909 5.35866C43.3216 5.37632 43.3526 5.39399 43.3833 5.41182C43.5522 5.51032 43.7202 5.61066 43.8869 5.71249C43.9222 5.73416 43.9571 5.75599 43.9923 5.77766C44.1547 5.87782 44.316 5.97932 44.4762 6.08266L44.5059 6.10166C44.6724 6.20949 44.8373 6.31966 45.0014 6.43116C45.0372 6.45532 45.073 6.47966 45.1088 6.50416C45.2701 6.61466 45.4301 6.72666 45.5888 6.84032C45.6131 6.85766 45.6368 6.87532 45.6611 6.89282C45.8068 6.99799 45.9513 7.10449 46.0949 7.21232C46.1226 7.23316 46.1505 7.25382 46.1782 7.27466C46.3331 7.39216 46.4868 7.51116 46.6392 7.63182C46.6724 7.65799 46.7056 7.68449 46.7387 7.71099C46.8943 7.83516 47.0491 7.96049 47.2019 8.08782L47.2034 8.08916C47.3568 8.21699 47.5083 8.34699 47.6589 8.47816C47.6911 8.50616 47.7233 8.53416 47.7554 8.56232C47.9013 8.69049 48.046 8.81999 48.1892 8.95116C48.2143 8.97416 48.2391 8.99732 48.264 9.02032C48.3958 9.14199 48.5265 9.26482 48.6559 9.38899C48.678 9.40999 48.7002 9.43099 48.7222 9.45216C48.8626 9.58766 49.0015 9.72499 49.1391 9.86349C49.1693 9.89382 49.1994 9.92432 49.2296 9.95482C49.369 10.0965 49.5074 10.239 49.6439 10.3835L49.6591 10.3998C49.7922 10.5412 49.9234 10.684 50.0537 10.8282C50.0811 10.8583 50.1087 10.8887 50.1359 10.9192C50.2663 11.0645 50.3951 11.211 50.5225 11.3592C50.5453 11.3857 50.5677 11.4123 50.5903 11.439C50.7076 11.5763 50.8236 11.7148 50.9383 11.8547C50.9563 11.8765 50.9744 11.898 50.9923 11.92C51.116 12.0715 51.2378 12.2248 51.3584 12.3792C51.3853 12.4135 51.4118 12.4478 51.4386 12.4823C51.5597 12.6388 51.6798 12.7963 51.7978 12.9555C51.8067 12.9675 51.8153 12.9797 51.824 12.9917C51.9359 13.1428 52.0458 13.2955 52.1545 13.4492C52.1786 13.4832 52.2027 13.517 52.2265 13.551C52.3454 13.7203 52.4627 13.8908 52.5779 14.063L52.5819 14.0688C52.7054 14.2537 52.827 14.4403 52.9465 14.6283L52.9518 14.6367C53.0703 14.8235 53.1866 15.0117 53.3008 15.2013L53.3079 15.2132C53.4225 15.404 53.5351 15.5962 53.6453 15.79L53.6473 15.7932C53.758 15.9878 53.8666 16.184 53.973 16.3817L53.9771 16.3895C54.0825 16.5855 54.1857 16.783 54.2865 16.9817L54.2919 16.9925C54.3932 17.1923 54.4922 17.3935 54.5888 17.596L54.5902 17.599C54.6871 17.8022 54.7816 18.0067 54.8739 18.2125L54.878 18.2217C54.9692 18.4257 55.0582 18.6312 55.1448 18.8377L55.1494 18.8492C55.2364 19.0567 55.3209 19.2655 55.4029 19.4757L55.4049 19.4803C55.4872 19.6915 55.567 19.9038 55.6446 20.1175L55.6472 20.1247C55.7243 20.3373 55.7989 20.5513 55.871 20.7665L55.8736 20.7743C55.9457 20.9895 56.0152 21.2058 56.0822 21.4232L56.0845 21.4308C56.1516 21.6488 56.2162 21.868 56.2782 22.0883L56.2802 22.0953C56.3419 22.315 56.401 22.5357 56.4576 22.7575L56.4599 22.7672C56.516 22.9875 56.5694 23.2087 56.6204 23.431L56.624 23.4468C56.6749 23.6698 56.7232 23.894 56.7689 24.1192L56.7701 24.1253C56.8159 24.3517 56.859 24.579 56.8994 24.8073L56.9014 24.8185C56.9415 25.0452 56.9788 25.2725 57.0134 25.501L57.0154 25.5145C57.0499 25.7427 57.0816 25.9715 57.1106 26.2013L57.1123 26.2148C57.1415 26.4468 57.1679 26.6797 57.1913 26.9133L57.1916 26.9163C57.2152 27.151 57.2359 27.3865 57.2537 27.6228L57.2543 27.6317C57.272 27.8655 57.2867 28.1003 57.2985 28.3358L57.2994 28.351C57.3111 28.5862 57.32 28.8222 57.3259 29.0588L57.3263 29.0697C57.3322 29.3093 57.3353 29.5497 57.3353 29.7907Z" fill="url(#paint0_linear_140_18)"/>
<path fill-rule="evenodd" clip-rule="evenodd" d="M11.0628 16.5827L6.88798 32.587C9.96375 31.5652 13.0875 31.1758 15.448 31.1758C20.6988 31.1758 23.0776 32.7817 22.3324 36.0417C21.5983 39.2533 18.0632 40.8103 13.7759 40.8103C10.5002 40.8103 6.9058 39.8858 4.64563 38.1828L3.96286 41.0258C4.75668 42.8637 5.73877 44.5992 6.88536 46.2075C8.80117 46.8017 10.946 47.1847 13.1378 47.1847C20.3636 47.1847 27.7789 43.8272 29.536 36.1392C31.271 28.5482 26.5059 25.58 19.9544 25.58C18.6057 25.58 17.0679 25.7747 15.6041 26.0667L16.9967 20.5728C17.1424 19.9978 17.6562 19.5965 18.2436 19.5985L31.3538 19.6437L32.7885 13.3667H15.4611C13.7848 13.3667 11.6199 14.543 11.0628 16.5827Z" fill="white"/>
<path fill-rule="evenodd" clip-rule="evenodd" d="M53.463 37.4528C54.5751 32.587 52.1778 30.008 49.0875 28.9862C52.4152 27.9157 54.8945 25.2882 55.673 21.882C55.7614 21.4947 55.8258 21.1198 55.8677 20.7568C55.0851 18.4245 54.0076 16.2295 52.6804 14.2172C50.956 13.2328 48.6306 12.7342 45.9134 12.7342C41.8669 12.7342 37.9352 13.7073 34.6297 15.313L33.0838 22.0767C36.7673 20.0817 40.5063 19.1083 43.4448 19.1083C47.3949 19.1083 49.1439 20.5195 48.5989 22.9038C48.0762 25.1908 45.8231 26.4073 42.5956 26.4073L38.0785 26.3587L36.6067 32.587H42.0021C45.2778 32.587 47.4528 33.6088 46.8079 36.431C46.0961 39.5452 42.735 40.7617 39.0256 40.7617C35.2572 40.8103 32.651 40.5793 29.42 38.487L27.8741 45.2507C31.2276 46.8077 33.8966 47.1847 38.1356 47.1847C44.8798 47.1847 51.8725 44.4112 53.463 37.4528Z" fill="white"/>
<path fill-rule="evenodd" clip-rule="evenodd" d="M119.525 38.7688H120.131L118.57 45.5973C118.502 45.8948 118.24 46.1055 117.938 46.1055H116.561L117.72 41.0365L116.393 41.448L116.84 39.6L119.525 38.7688ZM65.4573 44.8355C65.5169 44.9512 65.5258 45.0947 65.4832 45.2653C65.4195 45.5215 65.2705 45.7233 65.0359 45.8708C64.8015 46.018 64.503 46.0918 64.1403 46.0918H62.6716L63.3912 43.1992H64.7821C65.1258 43.1992 65.3761 43.2645 65.5331 43.3955C65.6901 43.5263 65.739 43.7115 65.6794 43.9512C65.6443 44.0917 65.5799 44.2157 65.4864 44.3232C65.393 44.4307 65.2753 44.516 65.1344 44.5793C65.2897 44.6343 65.3971 44.72 65.4573 44.8355ZM64.6805 45.2035C64.7292 45.0078 64.6361 44.91 64.4015 44.91H63.7636L63.6154 45.505H64.2537C64.488 45.505 64.6303 45.4047 64.6805 45.2035ZM63.9012 44.3563H64.4167C64.6457 44.3563 64.784 44.2612 64.8312 44.0712C64.8785 43.8812 64.7876 43.786 64.5584 43.786H64.0431L63.9012 44.3563ZM68.0694 45.4595L67.9122 46.0918H65.6128L66.3327 43.1992H68.5786L68.4214 43.8315H66.9773L66.8559 44.319H68.1282L67.9759 44.9307H66.7036L66.5721 45.4595H68.0694ZM71.6631 43.1992L70.9434 46.0918H70.1456L70.704 43.8478H69.8816L69.7481 44.319C69.6317 44.7322 69.5147 45.0685 69.397 45.3273C69.2796 45.5862 69.1391 45.7868 68.9755 45.9285C68.8118 46.0703 68.6128 46.1413 68.3785 46.1413C68.2691 46.1413 68.1506 46.1248 68.0226 46.0918L68.2341 45.4225C68.2674 45.4307 68.3032 45.435 68.3414 45.435C68.4478 45.435 68.5404 45.3922 68.6189 45.3065C68.6973 45.2212 68.7677 45.102 68.8304 44.9493C68.8931 44.7963 68.9588 44.5973 69.0281 44.3522L69.3559 43.1992H71.6631ZM72.1745 43.1992H72.9724L72.5499 44.8975L74.1546 43.1992H74.9155L74.1959 46.0918H73.3981L73.8197 44.3977L72.2199 46.0918H71.4547L72.1745 43.1992ZM76.1407 44.9845H75.7725L75.4969 46.0918H74.6909L75.4108 43.1992H76.2165L75.9368 44.3232H76.3255L77.2885 43.1992H78.1392L76.896 44.5958L77.4279 46.0918H76.5156L76.1407 44.9845ZM78.307 43.1992H79.105L78.6824 44.8975L80.2872 43.1992H81.048L80.3283 46.0918H79.5307L79.9521 44.3977L78.3524 46.0918H77.5873L78.307 43.1992ZM81.5593 43.1992H82.3573L81.9347 44.8975L83.5395 43.1992H84.3003L83.5808 46.0918H82.783L83.2046 44.3977L81.6047 46.0918H80.8398L81.5593 43.1992ZM82.3751 42.8563C82.2682 42.7432 82.2424 42.5752 82.2979 42.352H82.8419C82.8209 42.4485 82.827 42.52 82.8624 42.567C82.8968 42.6138 82.9648 42.637 83.0658 42.637C83.1666 42.637 83.2473 42.6138 83.3082 42.567C83.3689 42.52 83.4126 42.4485 83.4394 42.352H83.9834C83.9281 42.5752 83.818 42.7432 83.6537 42.8563C83.489 42.9692 83.2608 43.0255 82.9691 43.0255C82.6799 43.0255 82.482 42.9692 82.3751 42.8563ZM88.6245 43.1992L87.9048 46.0918H87.0948L87.3754 44.9637H86.2709L85.9903 46.0918H85.1801L85.8998 43.1992H86.71L86.4396 44.2858H87.5441L87.8145 43.1992H88.6245ZM89.0414 45.9555C88.8319 45.826 88.687 45.647 88.6062 45.4182C88.5253 45.1895 88.5205 44.9322 88.5913 44.6455C88.6626 44.359 88.7957 44.1015 88.9901 43.8728C89.1848 43.6442 89.4188 43.4652 89.6925 43.3357C89.9661 43.2062 90.2542 43.1413 90.557 43.1413C90.8599 43.1413 91.1157 43.2062 91.3247 43.3357C91.5341 43.4652 91.6788 43.6442 91.7596 43.8728C91.8408 44.1015 91.8454 44.359 91.7745 44.6455C91.7034 44.9322 91.5702 45.1895 91.3757 45.4182C91.181 45.647 90.947 45.826 90.6735 45.9555C90.3999 46.085 90.1116 46.1495 89.809 46.1495C89.5061 46.1495 89.2503 46.085 89.0413 45.9555H89.0414ZM90.3961 45.3687C90.5306 45.2997 90.6474 45.2027 90.7467 45.0775C90.8462 44.952 90.9162 44.808 90.9566 44.6455C90.997 44.483 90.9988 44.339 90.9615 44.2135C90.9246 44.0882 90.8559 43.991 90.756 43.9223C90.6556 43.8535 90.5334 43.819 90.3888 43.819C90.2443 43.819 90.1047 43.8535 89.9702 43.9223C89.8359 43.991 89.7189 44.0882 89.6196 44.2135C89.5203 44.339 89.4505 44.483 89.4099 44.6455C89.3695 44.808 89.3676 44.952 89.4049 45.0775C89.4421 45.2027 89.5105 45.2997 89.6107 45.3687C89.7107 45.4375 89.8331 45.472 89.9778 45.472C90.122 45.472 90.2618 45.4375 90.3961 45.3687ZM94.532 44.8355C94.5915 44.9512 94.6003 45.0947 94.5579 45.2653C94.4942 45.5215 94.345 45.7233 94.1106 45.8708C93.8764 46.018 93.5776 46.0918 93.2149 46.0918H91.7463L92.4658 43.1992H93.8568C94.2005 43.1992 94.451 43.2645 94.6077 43.3955C94.7648 43.5263 94.8136 43.7115 94.7541 43.9512C94.7188 44.0917 94.6546 44.2157 94.561 44.3232C94.4676 44.4307 94.3501 44.516 94.2091 44.5793C94.3643 44.6343 94.4718 44.72 94.532 44.8355ZM93.7552 45.2035C93.8037 45.0078 93.7108 44.91 93.4761 44.91H92.8382L92.6901 45.505H93.3283C93.5629 45.505 93.705 45.4047 93.7552 45.2035ZM92.9759 44.3563H93.4913C93.7205 44.3563 93.8586 44.2612 93.9058 44.0712C93.9532 43.8812 93.8622 43.786 93.6331 43.786H93.1176L92.9759 44.3563ZM97.3408 43.8478H96.0437L95.4857 46.0918H94.6877L95.4073 43.1992H97.5061L97.3408 43.8478ZM97.4239 45.9555C97.2145 45.826 97.0698 45.647 96.9887 45.4182C96.9078 45.1895 96.903 44.9322 96.9738 44.6455C97.0451 44.359 97.1779 44.1015 97.3728 43.8728C97.5673 43.6442 97.8013 43.4652 98.0752 43.3357C98.3486 43.2062 98.6367 43.1413 98.9395 43.1413C99.2424 43.1413 99.4981 43.2062 99.7072 43.3357C99.9166 43.4652 100.061 43.6442 100.142 43.8728C100.223 44.1015 100.228 44.359 100.157 44.6455C100.086 44.9322 99.9526 45.1895 99.758 45.4182C99.5635 45.647 99.3293 45.826 99.0558 45.9555C98.7822 46.085 98.4941 46.1495 98.1913 46.1495C97.8887 46.1495 97.6327 46.085 97.4236 45.9555H97.4239ZM98.7786 45.3687C98.9131 45.2997 99.03 45.2027 99.1292 45.0775C99.2287 44.952 99.2987 44.808 99.3393 44.6455C99.3795 44.483 99.3813 44.339 99.3442 44.2135C99.3071 44.0882 99.2384 43.991 99.1384 43.9223C99.0381 43.8535 98.916 43.819 98.7715 43.819C98.6268 43.819 98.4872 43.8535 98.3527 43.9223C98.2184 43.991 98.1014 44.0882 98.0024 44.2135C97.9029 44.339 97.833 44.483 97.7925 44.6455C97.7521 44.808 97.7501 44.952 97.7876 45.0775C97.8246 45.2027 97.8932 45.2997 97.9933 45.3687C98.0933 45.4375 98.2158 45.472 98.3605 45.472C98.505 45.472 98.6444 45.4375 98.7787 45.3687H98.7786ZM102.8 43.3292C102.969 43.4162 103.086 43.54 103.149 43.7012C103.213 43.8625 103.218 44.0518 103.164 44.2695C103.11 44.487 103.011 44.6758 102.868 44.8355C102.724 44.9953 102.547 45.1187 102.334 45.2053C102.122 45.2922 101.886 45.3355 101.627 45.3355H101.128L100.94 46.0918H100.129L100.849 43.1992H102.158C102.417 43.1992 102.631 43.2427 102.801 43.3292H102.8ZM102.141 44.5815C102.244 44.5083 102.312 44.4045 102.346 44.2695C102.379 44.1345 102.363 44.0298 102.297 43.9553C102.231 43.8812 102.114 43.8438 101.948 43.8438H101.498L101.287 44.691H101.737C101.904 44.691 102.038 44.6545 102.141 44.5815ZM103.638 45.9555C103.429 45.826 103.284 45.647 103.203 45.4182C103.122 45.1895 103.117 44.9322 103.188 44.6455C103.259 44.359 103.392 44.1015 103.587 43.8728C103.782 43.6442 104.016 43.4652 104.289 43.3357C104.563 43.2062 104.851 43.1413 105.154 43.1413C105.457 43.1413 105.713 43.2062 105.922 43.3357C106.131 43.4652 106.276 43.6442 106.357 43.8728C106.437 44.1015 106.442 44.359 106.372 44.6455C106.3 44.9322 106.167 45.1895 105.973 45.4182C105.778 45.647 105.544 45.826 105.27 45.9555C104.997 46.085 104.709 46.1495 104.406 46.1495C104.103 46.1495 103.847 46.085 103.638 45.9555ZM104.993 45.3687C105.127 45.2997 105.244 45.2027 105.344 45.0775C105.443 44.952 105.513 44.808 105.553 44.6455C105.594 44.483 105.595 44.339 105.558 44.2135C105.521 44.0882 105.453 43.991 105.353 43.9223C105.253 43.8535 105.13 43.819 104.986 43.819C104.841 43.819 104.701 43.8535 104.567 43.9223C104.433 43.991 104.316 44.0882 104.217 44.2135C104.117 44.339 104.047 44.483 104.007 44.6455C103.966 44.808 103.965 44.952 104.002 45.0775C104.039 45.2027 104.107 45.2997 104.208 45.3687C104.308 45.4375 104.43 45.472 104.575 45.472C104.719 45.472 104.859 45.4375 104.993 45.3687H104.993ZM109.499 45.443L109.193 46.6745H108.453L108.597 46.0918H106.764L106.62 46.6745H105.875L106.181 45.443H106.283C106.454 45.4402 106.602 45.3232 106.729 45.0917C106.856 44.8603 106.982 44.5272 107.107 44.0917L107.362 43.1992H109.669L109.11 45.443H109.499ZM107.528 44.9472C107.436 45.162 107.336 45.3273 107.229 45.443H108.313L108.709 43.8478H107.887L107.797 44.162C107.709 44.4707 107.619 44.7322 107.528 44.9472ZM76.8017 17.4243C81.4539 17.4243 84.6561 18.9453 83.5136 23.9433C82.3715 28.9413 78.4803 30.4353 73.8218 30.4623H71.3478L70.3288 34.921C70.1258 35.8092 69.3429 36.4382 68.4407 36.4382H65.007L69.0058 18.9432C69.2091 18.0542 69.9928 17.4243 70.8962 17.4243H76.8017ZM76.0505 21.7703H73.9877C73.6054 21.7703 73.2737 22.0367 73.1877 22.413L72.3411 26.1163H75.0572C76.5631 26.1163 78.0132 25.6545 78.4044 23.9433C78.7954 22.2322 77.5566 21.7703 76.0505 21.7703ZM78.228 36.4382L89.2711 18.5545C89.7054 17.8515 90.4677 17.4243 91.2881 17.4243H95.3476L98.3969 36.4382H93.2874L92.8947 33.4505H85.096L83.3374 36.4382H78.228ZM87.5064 29.376H92.3469L91.6648 23.8888C91.609 23.4273 91.5531 22.9655 91.6215 21.9603C91.2305 22.9655 90.9635 23.4273 90.6967 23.8888L87.5064 29.376ZM98.7913 36.4382L99.7909 32.0922H101.742C104.823 28.169 106.548 23.4712 107.699 18.8978C107.917 18.0303 108.692 17.4243 109.578 17.4243H121.498L118.146 32.0922H120.023L119.369 34.939C119.167 35.817 118.393 36.4382 117.5 36.4382H115.264H115.27H102.9H102.893H98.7911H98.7913ZM106.986 32.0922H113.171L115.499 21.906H112.37C111.914 21.906 111.511 22.2043 111.374 22.6437C110.294 26.112 108.958 29.5047 106.986 32.0922ZM132.453 36.4382L134.229 28.6695C134.465 27.6375 134.765 26.4422 135.05 25.5458L126.297 35.218C125.593 35.9953 124.599 36.4382 123.556 36.4382H120.486L124.484 18.9483C124.688 18.0562 125.474 17.4243 126.381 17.4243H129.807L128.032 25.1927C127.79 26.252 127.49 27.4472 127.204 28.3437L135.942 18.671C136.659 17.8767 137.675 17.4243 138.739 17.4243H141.774L137.777 34.914C137.573 35.8062 136.786 36.4382 135.88 36.4382H132.453ZM120.185 42.3815C120.441 41.2625 120.91 40.3585 121.592 39.6693C122.274 38.98 123.095 38.6355 124.057 38.6355C125.018 38.6355 125.682 38.98 126.049 39.6693C126.416 40.3585 126.472 41.2625 126.216 42.3815C125.957 43.5153 125.481 44.442 124.789 45.1608C124.096 45.8795 123.273 46.2388 122.319 46.2388C121.365 46.2388 120.706 45.8795 120.342 45.1608C119.978 44.442 119.926 43.5153 120.185 42.3815ZM129.517 44.5048H131.761L131.509 45.6092C131.443 45.8998 131.187 46.106 130.891 46.1065L125.836 46.1165C125.893 45.8637 126.028 45.6357 126.222 45.4652L129.191 42.8485C129.916 42.2113 130.33 41.6702 130.431 41.2255C130.49 40.9662 130.467 40.7625 130.362 40.6142C130.256 40.4662 130.09 40.3918 129.862 40.3918C129.635 40.3918 129.436 40.4697 129.264 40.6252C129.093 40.7808 128.976 40.9962 128.913 41.27C128.878 41.4257 128.855 41.5888 128.846 41.7592H126.942C126.935 41.559 126.958 41.3517 127.007 41.1365C127.141 40.4845 127.53 39.901 128.172 39.386C128.814 38.8708 129.523 38.6208 130.297 38.6355C131.052 38.6355 131.633 38.8652 132.037 39.3248C132.442 39.7842 132.566 40.3585 132.409 41.0477C132.298 41.5295 132.069 41.9868 131.721 42.4207C131.372 42.8542 130.851 43.3675 130.158 43.9602L129.517 44.5048ZM132.613 45.883C132.432 45.6462 132.382 45.3495 132.464 44.9938C132.545 44.6383 132.73 44.342 133.019 44.1045C133.308 43.8673 133.636 43.749 134.003 43.749C134.355 43.749 134.62 43.8673 134.796 44.1045C134.973 44.342 135.021 44.6383 134.94 44.9938C134.859 45.3495 134.675 45.6462 134.39 45.883C134.105 46.1205 133.786 46.2388 133.434 46.2388C133.067 46.2388 132.793 46.1205 132.613 45.883ZM137.226 38.7688H141.975C141.9 39.0992 141.763 39.4123 141.573 39.6917L137.591 45.5402C137.35 45.8942 136.952 46.1055 136.527 46.1055H135.149L139.073 40.4918H136.322L136.6 39.2715C136.668 38.9773 136.927 38.7688 137.226 38.7688ZM143.06 46.1055L144.619 39.2837C144.688 38.9825 144.953 38.7688 145.259 38.7688H149.667L149.39 39.9772C149.322 40.2783 149.056 40.4918 148.75 40.4918H146.236L145.915 41.8927H148.381L148.104 43.1008C148.035 43.402 147.77 43.6153 147.464 43.6153H145.521L145.07 45.5908C145.001 45.892 144.736 46.1055 144.429 46.1055H143.06ZM157.16 38.6355H157.765L156.173 45.6032C156.105 45.8972 155.846 46.1055 155.547 46.1055H154.165L154.868 43.0262L152.954 44.8048L152.563 45.143L152.349 44.8048L151.256 43.0375L150.67 45.6032C150.603 45.8973 150.343 46.1055 150.044 46.1055H148.662L150.37 38.6355H150.975L153.196 42.4483L157.16 38.6355ZM153.313 17.0168C160.036 17.0168 162.342 21.6345 161.131 26.9312C159.921 32.2278 155.504 36.8457 148.781 36.8457C142.058 36.8457 139.752 32.2278 140.963 26.9312C142.173 21.6345 146.59 17.0168 153.313 17.0168ZM152.258 21.6345C149.004 21.6345 146.767 23.8888 146.072 26.9312C145.377 29.9735 146.582 32.2278 149.836 32.2278C153.09 32.2278 155.327 29.9735 156.022 26.9312C156.717 23.8888 155.512 21.6345 152.258 21.6345ZM124.276 42.3927C124.434 41.7037 124.462 41.1977 124.359 40.8753C124.257 40.5533 124.022 40.3918 123.655 40.3918C123.288 40.3918 122.98 40.5533 122.73 40.8753C122.481 41.1977 122.277 41.7037 122.12 42.3927C121.801 43.7862 122.001 44.4825 122.72 44.4825C123.439 44.4825 123.958 43.7862 124.276 42.3927Z" fill="#464649"/>
<defs>
<linearGradient id="paint0_linear_140_18" x1="-146.724" y1="-68.5633" x2="-115.965" y2="-115.454" gradientUnits="userSpaceOnUse">
<stop stop-color="#EC7467"/>
<stop offset="0.12" stop-color="#F6993B"/>
<stop offset="1" stop-color="#FAFF00"/>
</linearGradient>
</defs>
</svg>
